<svg width="15" height="20" viewBox="0 0 15 20" fill="none" xmlns="http://www.w3.org/2000/svg">
<g filter="url(#filter0_d_1046_467)">
<path d="M4.21324 14.2131C4.0799 14.0464 4.00907 13.8631 4.00074 13.6631C3.9924 13.4631 4.06324 13.2881 4.21324 13.1381L8.61324 8.7381L4.18824 4.3131C4.0549 4.17976 3.9924 4.00059 4.00074 3.77559C4.00907 3.55059 4.0799 3.37143 4.21324 3.23809C4.3799 3.07143 4.55907 2.99226 4.75074 3.0006C4.9424 3.00893 5.11324 3.08809 5.26324 3.23809L10.2382 8.21309C10.3216 8.29643 10.3799 8.37976 10.4132 8.46309C10.4466 8.54643 10.4632 8.6381 10.4632 8.7381C10.4632 8.8381 10.4466 8.92976 10.4132 9.01309C10.3799 9.09643 10.3216 9.17976 10.2382 9.26309L5.28824 14.2131C5.13824 14.3631 4.96324 14.4339 4.76324 14.4256C4.56324 14.4173 4.3799 14.3464 4.21324 14.2131Z" fill="white"/>
</g>
<defs>
<filter id="filter0_d_1046_467" x="0" y="0" width="14.4631" height="19.4263" filterUnits="userSpaceOnUse" color-interpolation-filters="sRGB">
<feFlood flood-opacity="0" result="BackgroundImageFix"/>
<feColorMatrix in="SourceAlpha" type="matrix" values="0 0 0 0 0 0 0 0 0 0 0 0 0 0 0 0 0 0 127 0" result="hardAlpha"/>
<feMorphology radius="1" operator="dilate" in="SourceAlpha" result="effect1_dropShadow_1046_467"/>
<feOffset dy="1"/>
<feGaussianBlur stdDeviation="1.5"/>
<feComposite in2="hardAlpha" operator="out"/>
<feColorMatrix type="matrix" values="0 0 0 0 0 0 0 0 0 0 0 0 0 0 0 0 0 0 0.2 0"/>
<feBlend mode="normal" in2="BackgroundImageFix" result="effect1_dropShadow_1046_467"/>
<feBlend mode="normal" in="SourceGraphic" in2="effect1_dropShadow_1046_467" result="shape"/>
</filter>
</defs>
</svg>
