<svg width="13" height="23" viewBox="0 0 13 23" fill="none" xmlns="http://www.w3.org/2000/svg">
<path d="M10.35 22.4L0.449999 12.5C0.283332 12.3333 0.166667 12.1667 0.1 12C0.0333337 11.8333 0 11.65 0 11.45C0 11.25 0.0333337 11.0667 0.1 10.9C0.166667 10.7333 0.283332 10.5667 0.449999 10.4L10.4 0.45C10.7 0.15 11.0583 0 11.475 0C11.8917 0 12.25 0.15 12.55 0.45C12.85 0.75 12.9917 1.11667 12.975 1.55C12.9583 1.98333 12.8 2.35 12.5 2.65L3.7 11.45L12.55 20.3C12.85 20.6 13 20.95 13 21.35C13 21.75 12.85 22.1 12.55 22.4C12.25 22.7 11.8833 22.85 11.45 22.85C11.0167 22.85 10.65 22.7 10.35 22.4Z" fill="#1D1D1D"/>
</svg>
