<svg width="35" height="20" viewBox="0 0 35 20" fill="none" xmlns="http://www.w3.org/2000/svg">
<rect width="35" height="20" rx="10" fill="#F57D31"/>
<path d="M13.19 6.98V8.35H10.33V9.83H12.47V11.16H10.33V14H8.62V6.98H13.19ZM14.9488 7.84C14.6488 7.84 14.4021 7.75333 14.2088 7.58C14.0221 7.4 13.9288 7.18 13.9288 6.92C13.9288 6.65333 14.0221 6.43333 14.2088 6.26C14.4021 6.08 14.6488 5.99 14.9488 5.99C15.2421 5.99 15.4821 6.08 15.6688 6.26C15.8621 6.43333 15.9588 6.65333 15.9588 6.92C15.9588 7.18 15.8621 7.4 15.6688 7.58C15.4821 7.75333 15.2421 7.84 14.9488 7.84ZM15.7988 8.42V14H14.0888V8.42H15.7988ZM18.748 9.35C18.948 9.04333 19.198 8.80333 19.498 8.63C19.798 8.45 20.1313 8.36 20.498 8.36V10.17H20.028C19.6013 10.17 19.2813 10.2633 19.068 10.45C18.8546 10.63 18.748 10.95 18.748 11.41V14H17.038V8.42H18.748V9.35ZM26.5753 11.12C26.5753 11.28 26.5653 11.4467 26.5453 11.62H22.6753C22.702 11.9667 22.812 12.2333 23.0053 12.42C23.2053 12.6 23.4486 12.69 23.7353 12.69C24.162 12.69 24.4586 12.51 24.6253 12.15H26.4453C26.352 12.5167 26.182 12.8467 25.9353 13.14C25.6953 13.4333 25.392 13.6633 25.0253 13.83C24.6586 13.9967 24.2486 14.08 23.7953 14.08C23.2486 14.08 22.762 13.9633 22.3353 13.73C21.9086 13.4967 21.5753 13.1633 21.3353 12.73C21.0953 12.2967 20.9753 11.79 20.9753 11.21C20.9753 10.63 21.092 10.1233 21.3253 9.69C21.5653 9.25667 21.8986 8.92333 22.3253 8.69C22.752 8.45667 23.242 8.34 23.7953 8.34C24.3353 8.34 24.8153 8.45333 25.2353 8.68C25.6553 8.90667 25.982 9.23 26.2153 9.65C26.4553 10.07 26.5753 10.56 26.5753 11.12ZM24.8253 10.67C24.8253 10.3767 24.7253 10.1433 24.5253 9.97C24.3253 9.79667 24.0753 9.71 23.7753 9.71C23.4886 9.71 23.2453 9.79333 23.0453 9.96C22.852 10.1267 22.732 10.3633 22.6853 10.67H24.8253Z" fill="white"/>
</svg>
