<svg width="46" height="20" viewBox="0 0 46 20" fill="none" xmlns="http://www.w3.org/2000/svg">
<rect width="46" height="20" rx="10" fill="#74CB48"/>
<path d="M13.28 9.2C13.1533 8.96667 12.97 8.79 12.73 8.67C12.4967 8.54333 12.22 8.48 11.9 8.48C11.3467 8.48 10.9033 8.66333 10.57 9.03C10.2367 9.39 10.07 9.87333 10.07 10.48C10.07 11.1267 10.2433 11.6333 10.59 12C10.9433 12.36 11.4267 12.54 12.04 12.54C12.46 12.54 12.8133 12.4333 13.1 12.22C13.3933 12.0067 13.6067 11.7 13.74 11.3H11.57V10.04H15.29V11.63C15.1633 12.0567 14.9467 12.4533 14.64 12.82C14.34 13.1867 13.9567 13.4833 13.49 13.71C13.0233 13.9367 12.4967 14.05 11.91 14.05C11.2167 14.05 10.5967 13.9 10.05 13.6C9.51 13.2933 9.08667 12.87 8.78 12.33C8.48 11.79 8.33 11.1733 8.33 10.48C8.33 9.78667 8.48 9.17 8.78 8.63C9.08667 8.08333 9.51 7.66 10.05 7.36C10.59 7.05333 11.2067 6.9 11.9 6.9C12.74 6.9 13.4467 7.10333 14.02 7.51C14.6 7.91667 14.9833 8.48 15.17 9.2H13.28ZM17.9472 9.35C18.1472 9.04333 18.3972 8.80333 18.6972 8.63C18.9972 8.45 19.3305 8.36 19.6972 8.36V10.17H19.2272C18.8005 10.17 18.4805 10.2633 18.2672 10.45C18.0539 10.63 17.9472 10.95 17.9472 11.41V14H16.2372V8.42H17.9472V9.35ZM20.1745 11.2C20.1745 10.6267 20.2812 10.1233 20.4945 9.69C20.7145 9.25667 21.0112 8.92333 21.3845 8.69C21.7579 8.45667 22.1745 8.34 22.6345 8.34C23.0279 8.34 23.3712 8.42 23.6645 8.58C23.9645 8.74 24.1945 8.95 24.3545 9.21V8.42H26.0645V14H24.3545V13.21C24.1879 13.47 23.9545 13.68 23.6545 13.84C23.3612 14 23.0179 14.08 22.6245 14.08C22.1712 14.08 21.7579 13.9633 21.3845 13.73C21.0112 13.49 20.7145 13.1533 20.4945 12.72C20.2812 12.28 20.1745 11.7733 20.1745 11.2ZM24.3545 11.21C24.3545 10.7833 24.2345 10.4467 23.9945 10.2C23.7612 9.95333 23.4745 9.83 23.1345 9.83C22.7945 9.83 22.5045 9.95333 22.2645 10.2C22.0312 10.44 21.9145 10.7733 21.9145 11.2C21.9145 11.6267 22.0312 11.9667 22.2645 12.22C22.5045 12.4667 22.7945 12.59 23.1345 12.59C23.4745 12.59 23.7612 12.4667 23.9945 12.22C24.2345 11.9733 24.3545 11.6367 24.3545 11.21ZM29.5716 14.08C29.085 14.08 28.6516 13.9967 28.2716 13.83C27.8916 13.6633 27.5916 13.4367 27.3716 13.15C27.1516 12.8567 27.0283 12.53 27.0016 12.17H28.6916C28.7116 12.3633 28.8016 12.52 28.9616 12.64C29.1216 12.76 29.3183 12.82 29.5516 12.82C29.765 12.82 29.9283 12.78 30.0416 12.7C30.1616 12.6133 30.2216 12.5033 30.2216 12.37C30.2216 12.21 30.1383 12.0933 29.9716 12.02C29.805 11.94 29.535 11.8533 29.1616 11.76C28.7616 11.6667 28.4283 11.57 28.1616 11.47C27.895 11.3633 27.665 11.2 27.4716 10.98C27.2783 10.7533 27.1816 10.45 27.1816 10.07C27.1816 9.75 27.2683 9.46 27.4416 9.2C27.6216 8.93333 27.8816 8.72333 28.2216 8.57C28.5683 8.41667 28.9783 8.34 29.4516 8.34C30.1516 8.34 30.7016 8.51333 31.1016 8.86C31.5083 9.20667 31.7416 9.66667 31.8016 10.24H30.2216C30.195 10.0467 30.1083 9.89333 29.9616 9.78C29.8216 9.66667 29.635 9.61 29.4016 9.61C29.2016 9.61 29.0483 9.65 28.9416 9.73C28.835 9.80333 28.7816 9.90667 28.7816 10.04C28.7816 10.2 28.865 10.32 29.0316 10.4C29.205 10.48 29.4716 10.56 29.8316 10.64C30.245 10.7467 30.5816 10.8533 30.8416 10.96C31.1016 11.06 31.3283 11.2267 31.5216 11.46C31.7216 11.6867 31.825 11.9933 31.8316 12.38C31.8316 12.7067 31.7383 13 31.5516 13.26C31.3716 13.5133 31.1083 13.7133 30.7616 13.86C30.4216 14.0067 30.025 14.08 29.5716 14.08ZM35.1478 14.08C34.6611 14.08 34.2278 13.9967 33.8478 13.83C33.4678 13.6633 33.1678 13.4367 32.9478 13.15C32.7278 12.8567 32.6045 12.53 32.5778 12.17H34.2678C34.2878 12.3633 34.3778 12.52 34.5378 12.64C34.6978 12.76 34.8945 12.82 35.1278 12.82C35.3411 12.82 35.5045 12.78 35.6178 12.7C35.7378 12.6133 35.7978 12.5033 35.7978 12.37C35.7978 12.21 35.7145 12.0933 35.5478 12.02C35.3811 11.94 35.1111 11.8533 34.7378 11.76C34.3378 11.6667 34.0045 11.57 33.7378 11.47C33.4711 11.3633 33.2411 11.2 33.0478 10.98C32.8545 10.7533 32.7578 10.45 32.7578 10.07C32.7578 9.75 32.8445 9.46 33.0178 9.2C33.1978 8.93333 33.4578 8.72333 33.7978 8.57C34.1445 8.41667 34.5545 8.34 35.0278 8.34C35.7278 8.34 36.2778 8.51333 36.6778 8.86C37.0845 9.20667 37.3178 9.66667 37.3778 10.24H35.7978C35.7711 10.0467 35.6845 9.89333 35.5378 9.78C35.3978 9.66667 35.2111 9.61 34.9778 9.61C34.7778 9.61 34.6245 9.65 34.5178 9.73C34.4111 9.80333 34.3578 9.90667 34.3578 10.04C34.3578 10.2 34.4411 10.32 34.6078 10.4C34.7811 10.48 35.0478 10.56 35.4078 10.64C35.8211 10.7467 36.1578 10.8533 36.4178 10.96C36.6778 11.06 36.9045 11.2267 37.0978 11.46C37.2978 11.6867 37.4011 11.9933 37.4078 12.38C37.4078 12.7067 37.3145 13 37.1278 13.26C36.9478 13.5133 36.6845 13.7133 36.3378 13.86C35.9978 14.0067 35.6011 14.08 35.1478 14.08Z" fill="white"/>
</svg>
