<svg width="34" height="32" viewBox="0 0 34 32" fill="none" xmlns="http://www.w3.org/2000/svg">
<path d="M6.95926 32C6.49259 32 6.10926 31.8167 5.80926 31.45C5.50926 31.0833 5.42593 30.6667 5.55926 30.2L7.25926 23.5H1.50926C1.04259 23.5 0.650926 23.3083 0.334259 22.925C0.0175927 22.5417 -0.0740741 22.1167 0.0592592 21.65C0.125926 21.3167 0.292593 21.0417 0.559259 20.825C0.825926 20.6083 1.14259 20.5 1.50926 20.5H8.00926L10.2593 11.5H3.50926C3.04259 11.5 2.65093 11.3083 2.33426 10.925C2.01759 10.5417 1.92593 10.1167 2.05926 9.65C2.12593 9.31667 2.29259 9.04167 2.55926 8.825C2.82593 8.60833 3.14259 8.5 3.50926 8.5H11.0093L12.8593 1.1C12.9259 0.766667 13.0843 0.5 13.3343 0.3C13.5843 0.1 13.8759 0 14.2093 0C14.6759 0 15.0509 0.183334 15.3343 0.55C15.6176 0.916667 15.7093 1.33333 15.6093 1.8L13.9593 8.5H23.0093L24.8593 1.1C24.9259 0.766667 25.0843 0.5 25.3343 0.3C25.5843 0.1 25.8759 0 26.2093 0C26.6759 0 27.0509 0.183334 27.3343 0.55C27.6176 0.916667 27.7093 1.33333 27.6093 1.8L25.9593 8.5H31.7093C32.1759 8.5 32.5676 8.69167 32.8843 9.075C33.2009 9.45833 33.2926 9.88333 33.1593 10.35C33.0926 10.6833 32.9259 10.9583 32.6593 11.175C32.3926 11.3917 32.0759 11.5 31.7093 11.5H25.2093L22.9593 20.5H29.7093C30.1759 20.5 30.5676 20.6917 30.8843 21.075C31.2009 21.4583 31.2926 21.8833 31.1593 22.35C31.0926 22.6833 30.9259 22.9583 30.6593 23.175C30.3926 23.3917 30.0759 23.5 29.7093 23.5H22.2093L20.3593 30.9C20.2926 31.1667 20.1509 31.4167 19.9343 31.65C19.7176 31.8833 19.3926 32 18.9593 32C18.4926 32 18.1093 31.8167 17.8093 31.45C17.5093 31.0833 17.4259 30.6667 17.5593 30.2L19.2593 23.5H10.2093L8.35926 30.9C8.29259 31.1667 8.15093 31.4167 7.93426 31.65C7.71759 31.8833 7.39259 32 6.95926 32ZM10.9593 20.5H20.0093L22.2593 11.5H13.2093L10.9593 20.5Z" fill="#1D1D1D"/>
</svg>
