<svg width="8" height="14" viewBox="0 0 8 14" fill="none" xmlns="http://www.w3.org/2000/svg">
<path d="M0 1C0 0.733333 0.1 0.5 0.3 0.3C0.5 0.1 0.733333 0 1 0L7 0C7.25556 0 7.48611 0.1 7.69167 0.3C7.89722 0.5 8 0.733333 8 1V12.3333C8 12.6 7.89722 12.8333 7.69167 13.0333C7.48611 13.2333 7.25556 13.3333 7 13.3333H1C0.733333 13.3333 0.5 13.2333 0.3 13.0333C0.1 12.8333 0 12.6 0 12.3333L0 1ZM1 1L1 12.3333H7V10.1667H4V9.16667H7L7 7.16667H4V6.16667H7V4.16667H4V3.16667L7 3.16667V1L1 1ZM4 3.16667V4.16667V3.16667ZM4 6.16667V7.16667V6.16667ZM4 9.16667V10.1667V9.16667Z" fill="#1D1D1D"/>
</svg>
