<svg width="12" height="12" viewBox="0 0 12 12" fill="none" xmlns="http://www.w3.org/2000/svg">
<path d="M10.9 11.6333L6.88333 7.61667C6.55 7.90556 6.16111 8.13056 5.71667 8.29167C5.27222 8.45278 4.8 8.53333 4.3 8.53333C3.1 8.53333 2.08333 8.11667 1.25 7.28333C0.416667 6.45 0 5.44444 0 4.26667C0 3.08889 0.416667 2.08333 1.25 1.25C2.08333 0.416667 3.09444 0 4.28333 0C5.46111 0 6.46389 0.416667 7.29167 1.25C8.11944 2.08333 8.53333 3.08889 8.53333 4.26667C8.53333 4.74444 8.45555 5.20556 8.3 5.65C8.14444 6.09444 7.91111 6.51111 7.6 6.9L11.65 10.9167C11.75 11.0056 11.8 11.1194 11.8 11.2583C11.8 11.3972 11.7444 11.5222 11.6333 11.6333C11.5333 11.7333 11.4111 11.7833 11.2667 11.7833C11.1222 11.7833 11 11.7333 10.9 11.6333ZM4.28333 7.53333C5.18333 7.53333 5.95 7.21389 6.58333 6.575C7.21667 5.93611 7.53333 5.16667 7.53333 4.26667C7.53333 3.36667 7.21667 2.59722 6.58333 1.95833C5.95 1.31944 5.18333 1 4.28333 1C3.37222 1 2.59722 1.31944 1.95833 1.95833C1.31944 2.59722 1 3.36667 1 4.26667C1 5.16667 1.31944 5.93611 1.95833 6.575C2.59722 7.21389 3.37222 7.53333 4.28333 7.53333Z" fill="#DC0A2D"/>
</svg>
