<svg width="10" height="10" viewBox="0 0 10 10" fill="none" xmlns="http://www.w3.org/2000/svg">
<path d="M0.5 10C0.355556 10 0.236111 9.95278 0.141667 9.85833C0.0472223 9.76389 0 9.64444 0 9.5C0 9.35556 0.0472223 9.23611 0.141667 9.14167C0.236111 9.04722 0.355556 9 0.5 9H8.83333C8.97778 9 9.09722 9.04722 9.19167 9.14167C9.28611 9.23611 9.33333 9.35556 9.33333 9.5C9.33333 9.64444 9.28611 9.76389 9.19167 9.85833C9.09722 9.95278 8.97778 10 8.83333 10H0.5ZM3.21667 4.6H6.11667L4.7 0.9H4.63333L3.21667 4.6ZM1.95 7.33333C1.77222 7.33333 1.65556 7.275 1.6 7.15833C1.54444 7.04167 1.54444 6.9 1.6 6.73333L3.93333 0.516667C3.98889 0.372222 4.08611 0.25 4.225 0.15C4.36389 0.0499999 4.51111 0 4.66667 0C4.82222 0 4.96944 0.0499999 5.10833 0.15C5.24722 0.25 5.34444 0.372222 5.4 0.516667L7.73333 6.73333C7.78889 6.9 7.78889 7.04167 7.73333 7.15833C7.67778 7.275 7.56111 7.33333 7.38333 7.33333C7.29444 7.33333 7.21389 7.30833 7.14167 7.25833C7.06944 7.20833 7.02222 7.15 7 7.08333L6.35 5.35H2.96667L2.31667 7.08333C2.29444 7.15 2.24722 7.20833 2.175 7.25833C2.10278 7.30833 2.02778 7.33333 1.95 7.33333Z" fill="#DC0A2D"/>
</svg>
