<svg width="48" height="20" viewBox="0 0 48 20" fill="none" xmlns="http://www.w3.org/2000/svg">
<rect width="48" height="20" rx="10" fill="#6493EB"/>
<path d="M18.28 6.98L16.45 14H14.38L13.26 9.38L12.1 14H10.03L8.25 6.98H10.08L11.09 12.09L12.34 6.98H14.22L15.42 12.09L16.44 6.98H18.28ZM18.7976 11.2C18.7976 10.6267 18.9042 10.1233 19.1176 9.69C19.3376 9.25667 19.6342 8.92333 20.0076 8.69C20.3809 8.45667 20.7976 8.34 21.2576 8.34C21.6509 8.34 21.9942 8.42 22.2876 8.58C22.5876 8.74 22.8176 8.95 22.9776 9.21V8.42H24.6876V14H22.9776V13.21C22.8109 13.47 22.5776 13.68 22.2776 13.84C21.9842 14 21.6409 14.08 21.2476 14.08C20.7942 14.08 20.3809 13.9633 20.0076 13.73C19.6342 13.49 19.3376 13.1533 19.1176 12.72C18.9042 12.28 18.7976 11.7733 18.7976 11.2ZM22.9776 11.21C22.9776 10.7833 22.8576 10.4467 22.6176 10.2C22.3842 9.95333 22.0976 9.83 21.7576 9.83C21.4176 9.83 21.1276 9.95333 20.8876 10.2C20.6542 10.44 20.5376 10.7733 20.5376 11.2C20.5376 11.6267 20.6542 11.9667 20.8876 12.22C21.1276 12.4667 21.4176 12.59 21.7576 12.59C22.0976 12.59 22.3842 12.4667 22.6176 12.22C22.8576 11.9733 22.9776 11.6367 22.9776 11.21ZM29.0347 12.55V14H28.1647C27.5447 14 27.0614 13.85 26.7147 13.55C26.368 13.2433 26.1947 12.7467 26.1947 12.06V9.84H25.5147V8.42H26.1947V7.06H27.9047V8.42H29.0247V9.84H27.9047V12.08C27.9047 12.2467 27.9447 12.3667 28.0247 12.44C28.1047 12.5133 28.238 12.55 28.4247 12.55H29.0347ZM35.2472 11.12C35.2472 11.28 35.2372 11.4467 35.2172 11.62H31.3472C31.3739 11.9667 31.4839 12.2333 31.6772 12.42C31.8772 12.6 32.1205 12.69 32.4072 12.69C32.8339 12.69 33.1305 12.51 33.2972 12.15H35.1172C35.0239 12.5167 34.8539 12.8467 34.6072 13.14C34.3672 13.4333 34.0639 13.6633 33.6972 13.83C33.3305 13.9967 32.9205 14.08 32.4672 14.08C31.9205 14.08 31.4339 13.9633 31.0072 13.73C30.5805 13.4967 30.2472 13.1633 30.0072 12.73C29.7672 12.2967 29.6472 11.79 29.6472 11.21C29.6472 10.63 29.7639 10.1233 29.9972 9.69C30.2372 9.25667 30.5705 8.92333 30.9972 8.69C31.4239 8.45667 31.9139 8.34 32.4672 8.34C33.0072 8.34 33.4872 8.45333 33.9072 8.68C34.3272 8.90667 34.6539 9.23 34.8872 9.65C35.1272 10.07 35.2472 10.56 35.2472 11.12ZM33.4972 10.67C33.4972 10.3767 33.3972 10.1433 33.1972 9.97C32.9972 9.79667 32.7472 9.71 32.4472 9.71C32.1605 9.71 31.9172 9.79333 31.7172 9.96C31.5239 10.1267 31.4039 10.3633 31.3572 10.67H33.4972ZM37.8593 9.35C38.0593 9.04333 38.3093 8.80333 38.6093 8.63C38.9093 8.45 39.2426 8.36 39.6093 8.36V10.17H39.1393C38.7126 10.17 38.3926 10.2633 38.1793 10.45C37.966 10.63 37.8593 10.95 37.8593 11.41V14H36.1493V8.42H37.8593V9.35Z" fill="white"/>
</svg>
