<svg width="33" height="37" viewBox="0 0 33 37" fill="none" xmlns="http://www.w3.org/2000/svg">
<path d="M2.98721 34H29.2872L26.1372 12H6.13721L2.98721 34ZM16.1372 9C17.0039 9 17.7205 8.70833 18.2872 8.125C18.8539 7.54167 19.1372 6.83333 19.1372 6C19.1372 5.13333 18.8539 4.41667 18.2872 3.85C17.7205 3.28333 17.0039 3 16.1372 3C15.3039 3 14.5955 3.28333 14.0122 3.85C13.4289 4.41667 13.1372 5.13333 13.1372 6C13.1372 6.83333 13.4289 7.54167 14.0122 8.125C14.5955 8.70833 15.3039 9 16.1372 9ZM21.3372 9H26.1372C26.9039 9 27.5705 9.24167 28.1372 9.725C28.7039 10.2083 29.0372 10.8333 29.1372 11.6L32.2372 33.6C32.3705 34.5 32.1455 35.2917 31.5622 35.975C30.9789 36.6583 30.2205 37 29.2872 37H2.98721C2.05388 37 1.29554 36.6583 0.712209 35.975C0.128876 35.2917 -0.096124 34.5 0.0372093 33.6L3.13721 11.6C3.23721 10.8333 3.57054 10.2083 4.13721 9.725C4.70388 9.24167 5.37054 9 6.13721 9H10.9372C10.6705 8.53333 10.4705 8.05833 10.3372 7.575C10.2039 7.09167 10.1372 6.56667 10.1372 6C10.1372 4.33333 10.7205 2.91667 11.8872 1.75C13.0539 0.583333 14.4705 0 16.1372 0C17.8039 0 19.2205 0.583333 20.3872 1.75C21.5539 2.91667 22.1372 4.33333 22.1372 6C22.1372 6.56667 22.0705 7.09167 21.9372 7.575C21.8039 8.05833 21.6039 8.53333 21.3372 9ZM2.98721 34H29.2872H2.98721Z" fill="#1D1D1D"/>
</svg>
