<svg width="11" height="13" viewBox="0 0 11 13" fill="none" xmlns="http://www.w3.org/2000/svg">
<path d="M0.995736 11.3333H9.7624L8.7124 4H2.04574L0.995736 11.3333ZM5.37907 3C5.66796 3 5.90685 2.90278 6.09574 2.70833C6.28462 2.51389 6.37907 2.27778 6.37907 2C6.37907 1.71111 6.28462 1.47222 6.09574 1.28333C5.90685 1.09444 5.66796 1 5.37907 1C5.10129 1 4.86518 1.09444 4.67074 1.28333C4.47629 1.47222 4.37907 1.71111 4.37907 2C4.37907 2.27778 4.47629 2.51389 4.67074 2.70833C4.86518 2.90278 5.10129 3 5.37907 3ZM7.1124 3H8.7124C8.96796 3 9.19018 3.08056 9.37907 3.24167C9.56796 3.40278 9.67907 3.61111 9.7124 3.86667L10.7457 11.2C10.7902 11.5 10.7152 11.7639 10.5207 11.9917C10.3263 12.2194 10.0735 12.3333 9.7624 12.3333H0.995736C0.684625 12.3333 0.431847 12.2194 0.237403 11.9917C0.0429586 11.7639 -0.0320413 11.5 0.0124031 11.2L1.04574 3.86667C1.07907 3.61111 1.19018 3.40278 1.37907 3.24167C1.56796 3.08056 1.79018 3 2.04574 3H3.64574C3.55685 2.84444 3.49018 2.68611 3.44574 2.525C3.40129 2.36389 3.37907 2.18889 3.37907 2C3.37907 1.44444 3.57351 0.972222 3.9624 0.583333C4.35129 0.194444 4.82351 0 5.37907 0C5.93462 0 6.40685 0.194444 6.79574 0.583333C7.18462 0.972222 7.37907 1.44444 7.37907 2C7.37907 2.18889 7.35685 2.36389 7.3124 2.525C7.26796 2.68611 7.20129 2.84444 7.1124 3ZM0.995736 11.3333H9.7624H0.995736Z" fill="#1D1D1D"/>
</svg>
