<svg width="27" height="27" viewBox="0 0 27 27" fill="none" xmlns="http://www.w3.org/2000/svg">
<path d="M13.05 15.15L2.55 25.65C2.25 25.95 1.9 26.1 1.5 26.1C1.1 26.1 0.75 25.95 0.45 25.65C0.15 25.35 0 25 0 24.6C0 24.2 0.15 23.85 0.45 23.55L10.95 13.05L0.45 2.55C0.15 2.25 0 1.9 0 1.5C0 1.1 0.15 0.75 0.45 0.45C0.75 0.15 1.1 0 1.5 0C1.9 0 2.25 0.15 2.55 0.45L13.05 10.95L23.55 0.45C23.85 0.15 24.2 0 24.6 0C25 0 25.35 0.15 25.65 0.45C25.95 0.75 26.1 1.1 26.1 1.5C26.1 1.9 25.95 2.25 25.65 2.55L15.15 13.05L25.65 23.55C25.95 23.85 26.1 24.2 26.1 24.6C26.1 25 25.95 25.35 25.65 25.65C25.35 25.95 25 26.1 24.6 26.1C24.2 26.1 23.85 25.95 23.55 25.65L13.05 15.15Z" fill="#1D1D1D"/>
</svg>
